<svg width="146" height="195" viewBox="0 0 146 195" fill="none" xmlns="http://www.w3.org/2000/svg">
<path id="3" d="M72.6915 195C117.491 195 146 172.565 146 137.739V137.478C146 112.565 128.845 96.913 102.064 94.0435V93.1304C122.304 88.8261 138.965 73.8261 138.965 50.2174V49.9565C138.965 19.8261 113.048 0 72.3212 0C32.8284 0 6.66441 21.913 4.31953 55.5652L4.19611 57.3913H45.2933L45.4167 56.2174C46.6509 43.9565 56.7709 35.6087 72.3212 35.6087C87.7481 35.6087 96.8808 43.5652 96.8808 56.4783V56.7391C96.8808 70.0435 86.2671 78.7826 68.8656 78.7826H49.7363V111.261H69.1124C88.8588 111.261 99.9662 119.609 99.9662 134.739V135C99.9662 148.043 89.4759 157.304 72.568 157.304C55.6602 157.304 44.9231 148.696 43.4421 138L43.1953 136.565H0L0.123415 138.13C2.71513 172.043 30.6069 195 72.6915 195Z" fill="#2D66EE" fill-opacity="0.04"/>
</svg>
