<svg width="153" height="207" viewBox="0 0 153 207" fill="none" xmlns="http://www.w3.org/2000/svg">
<path id="5" d="M75.4996 207C121.52 207 153 177.831 153 134.43V134.148C153 96.1021 126.722 68.6242 90.4394 68.6242C70.4307 68.6242 54.6905 77.5017 47.0872 91.1702H46.1534L50.0218 39.7372H140.995V0H11.4717L3.20139 121.184H45.6199C47.6207 117.098 50.8221 113.293 54.8239 110.334C60.2929 106.107 67.3627 103.711 75.4996 103.711C93.7742 103.711 106.847 116.534 106.847 135.135V135.417C106.847 154.158 93.9076 167.263 75.4996 167.263C59.3592 167.263 47.7541 157.258 44.6861 144.576L44.4194 143.59H0L0.133391 145.985C2.26765 180.368 30.8134 207 75.4996 207Z" fill="#2D66EE" fill-opacity="0.04"/>
</svg>
