<svg width="150" height="192" viewBox="0 0 150 192" fill="none" xmlns="http://www.w3.org/2000/svg">
<path id="6" d="M78.2178 192C119.554 192 150 164.773 150 126.116V125.86C150 91.4408 127.104 66.3973 92.3267 66.3973C68.1931 66.3973 51.1139 78.598 44.0594 96.1926H43.1931C43.1931 93.4957 43.3168 90.4134 43.4406 87.4595C45.1733 58.0495 55.4455 36.2167 77.8465 36.2167C90.5941 36.2167 99.0099 42.895 102.847 51.8849L103.218 52.7839H147.649L147.525 51.7565C142.327 22.2181 114.728 0 77.8465 0C29.8267 0 0 36.602 0 96.4495V96.7064C0 156.425 29.703 192 78.2178 192ZM49.0099 127.529V127.401C49.0099 110.962 61.6337 99.4033 77.9703 99.4033C93.8119 99.4033 106.188 110.962 106.188 127.658V127.914C106.188 143.583 93.3168 155.655 77.599 155.655C61.5099 155.655 49.0099 143.583 49.0099 127.529Z" fill="#2D66EE" fill-opacity="0.04"/>
</svg>
