<svg width="52" height="52" viewBox="0 0 52 52" fill="none" xmlns="http://www.w3.org/2000/svg">
<g filter="url(#filter0_d_17_278)">
<rect x="4" y="2" width="44" height="44" rx="22" fill="white"/>
<path fill-rule="evenodd" clip-rule="evenodd" d="M18.9996 16.9996C20.7902 15.2091 23.2664 14.1 26 14.1C28.7335 14.1 31.2098 15.2091 33.0003 16.9996C34.7909 18.7902 35.9 21.2664 35.9 24C35.9 26.7335 34.7909 29.2098 33.0003 31.0003C31.2098 32.7909 28.7335 33.9 26 33.9C23.2664 33.9 20.7902 32.7909 18.9996 31.0003C17.2091 29.2098 16.1 26.7335 16.1 24C16.1 21.2664 17.2091 18.7902 18.9996 16.9996ZM26 15.9C23.763 15.9 21.7392 16.8056 20.2724 18.2724C18.8056 19.7392 17.9 21.763 17.9 24C17.9 26.237 18.8056 28.2607 20.2724 29.7275C21.7392 31.1943 23.763 32.1 26 32.1C28.237 32.1 30.2607 31.1943 31.7275 29.7275C33.1943 28.2607 34.1 26.237 34.1 24C34.1 21.763 33.1943 19.7392 31.7275 18.2724C30.2607 16.8056 28.237 15.9 26 15.9Z" fill="#2D66EE"/>
<path fill-rule="evenodd" clip-rule="evenodd" d="M21.828 19.828C22.8948 18.7613 24.371 18.1 26 18.1C27.629 18.1 29.1052 18.7613 30.1719 19.828C31.2386 20.8948 31.9 22.371 31.9 24C31.9 25.629 31.2386 27.1052 30.1719 28.1719C29.1052 29.2386 27.629 29.9 26 29.9C24.371 29.9 22.8948 29.2386 21.828 28.1719C20.7613 27.1052 20.1 25.629 20.1 24C20.1 22.371 20.7613 20.8948 21.828 19.828ZM26 19.9C24.8675 19.9 23.8438 20.3579 23.1008 21.1008C22.3579 21.8438 21.9 22.8675 21.9 24C21.9 25.1324 22.3579 26.1562 23.1008 26.8991C23.8438 27.6421 24.8675 28.1 26 28.1C27.1324 28.1 28.1562 27.6421 28.8991 26.8991C29.6421 26.1562 30.1 25.1324 30.1 24C30.1 22.8675 29.6421 21.8438 28.8991 21.1008C28.1562 20.3579 27.1324 19.9 26 19.9Z" fill="#2D66EE"/>
<path fill-rule="evenodd" clip-rule="evenodd" d="M27.3435 22.6565C27.0006 22.3136 26.5244 22.1 26 22.1C25.4756 22.1 24.9993 22.3136 24.6565 22.6565C24.3136 22.9993 24.1 23.4756 24.1 24C24.1 24.5244 24.3136 25.0006 24.6565 25.3435C24.9993 25.6863 25.4756 25.9 26 25.9C26.5244 25.9 27.0006 25.6863 27.3435 25.3435C27.6863 25.0006 27.9 24.5244 27.9 24C27.9 23.4756 27.6863 22.9993 27.3435 22.6565Z" fill="#2D66EE"/>
</g>
<defs>
<filter id="filter0_d_17_278" x="0" y="0" width="52" height="52" filterUnits="userSpaceOnUse" color-interpolation-filters="sRGB">
<feFlood flood-opacity="0" result="BackgroundImageFix"/>
<feColorMatrix in="SourceAlpha" type="matrix" values="0 0 0 0 0 0 0 0 0 0 0 0 0 0 0 0 0 0 127 0" result="hardAlpha"/>
<feOffset dy="2"/>
<feGaussianBlur stdDeviation="2"/>
<feColorMatrix type="matrix" values="0 0 0 0 0 0 0 0 0 0 0 0 0 0 0 0 0 0 0.08 0"/>
<feBlend mode="normal" in2="BackgroundImageFix" result="effect1_dropShadow_17_278"/>
<feBlend mode="normal" in="SourceGraphic" in2="effect1_dropShadow_17_278" result="shape"/>
</filter>
</defs>
</svg>
