<svg width="394" height="88" viewBox="0 0 394 88" fill="none" xmlns="http://www.w3.org/2000/svg">
<g opacity="0.48">
<path d="M14.5802 11.4052H0V0.92627H39.7383V11.4052H25.1581V56.3315H14.5802V11.4052Z" fill="#306FF5"/>
<path d="M87.148 0.92627V56.3315H76.6178V33.6368H55.9387V56.3315H45.3608V0.92627H55.9387V22.8105H76.6178V0.92627H87.148Z" fill="#306FF5"/>
<path d="M127.315 44.1157C129.507 42.6105 131.222 40.4684 132.461 37.8052C133.652 35.1421 134.271 32.0737 134.271 28.6579C134.271 25.1842 133.652 22.1737 132.461 19.4526C131.222 16.7895 129.507 14.6474 127.315 13.2C125.171 11.6947 122.741 10.9421 120.025 10.9421C117.357 10.9421 114.926 11.6947 112.735 13.2C110.591 14.6474 108.875 16.7895 107.636 19.4526C106.398 22.1737 105.778 25.1842 105.778 28.6579C105.778 32.0737 106.398 35.1421 107.636 37.8052C108.875 40.4684 110.591 42.6105 112.735 44.1157C114.926 45.621 117.357 46.3736 120.025 46.3736C122.741 46.3736 125.171 45.621 127.315 44.1157ZM107.255 53.5526C103.443 51.0631 100.489 47.6473 98.345 43.3052C96.2009 38.9631 95.105 34.0421 95.105 28.6579C95.105 23.2158 96.2009 18.2947 98.345 13.9526C100.489 9.61052 103.443 6.19473 107.255 3.70526C111.067 1.21579 115.308 0 120.025 0C124.79 0 129.03 1.21579 132.794 3.70526C136.559 6.19473 139.56 9.61052 141.705 13.9526C143.896 18.2947 144.992 23.2158 144.992 28.6579C144.992 34.0421 143.896 38.9631 141.705 43.3052C139.56 47.6473 136.559 51.0631 132.794 53.5526C129.03 56.042 124.79 57.2578 120.025 57.2578C115.308 57.2578 111.067 56.042 107.255 53.5526Z" fill="#306FF5"/>
<path d="M157.953 50.7157C154.331 46.3157 152.521 40.063 152.521 31.9578V0.92627H163.051V31.4946C163.051 41.3946 166.434 46.3736 173.2 46.3736C176.535 46.3736 179.013 45.1578 180.776 42.7262C182.491 40.3525 183.349 36.5894 183.349 31.4946V0.92627H193.784V31.9578C193.784 40.063 191.973 46.3157 188.352 50.7157C184.731 55.0578 179.68 57.2578 173.152 57.2578C166.625 57.2578 161.574 55.0578 157.953 50.7157Z" fill="#306FF5"/>
<path d="M208.745 55.4631C205.362 54.3052 202.646 52.742 200.597 50.8315L204.219 41.221C206.172 42.9578 208.459 44.3473 211.175 45.3894C213.843 46.4315 216.559 47.0105 219.228 47.0105C222.23 47.0105 224.421 46.4315 225.898 45.3894C227.328 44.2894 228.043 42.8421 228.043 41.0473C228.043 39.7157 227.614 38.6157 226.756 37.7473C225.898 36.8789 224.802 36.1842 223.516 35.6631C222.182 35.1421 220.371 34.5631 218.132 33.9263C214.654 32.9421 211.795 31.9579 209.603 30.9158C207.411 29.9315 205.505 28.3105 203.933 26.1105C202.313 23.9105 201.55 20.9579 201.55 17.2526C201.55 14.0105 202.265 11.1158 203.695 8.51052C205.124 5.90526 207.268 3.82105 210.175 2.31579C213.033 0.752631 216.559 0 220.752 0C223.659 0 226.47 0.405263 229.281 1.27368C232.045 2.08421 234.475 3.3 236.571 4.92105L233.284 14.6474C229.091 11.7526 224.898 10.3053 220.657 10.3053C217.703 10.3053 215.559 10.8842 214.129 12.0421C212.7 13.2 212.033 14.7052 212.033 16.6158C212.033 18.5263 212.843 19.9158 214.463 20.8421C216.083 21.7684 218.561 22.6947 221.896 23.5631C225.374 24.5473 228.233 25.5894 230.425 26.5737C232.664 27.5579 234.523 29.1789 236.143 31.321C237.715 33.4631 238.525 36.4157 238.525 40.121C238.525 43.2473 237.763 46.1421 236.333 48.7473C234.856 51.3526 232.664 53.4368 229.806 54.942C226.851 56.5052 223.325 57.2578 219.18 57.2578C215.559 57.2578 212.081 56.6789 208.745 55.4631Z" fill="#306FF5"/>
<path d="M337.394 0.92627V56.3315H328.722L305.994 22.6947V56.3315H295.607V0.92627H304.327L326.959 34.5631V0.92627H337.394Z" fill="#306FF5"/>
<path d="M390.855 14.0684C388.759 9.89995 385.804 6.71574 381.993 4.39995C378.181 2.08416 373.845 0.92627 368.889 0.92627H348.163V11.4631H368.365C372.939 11.4631 376.561 13.0263 379.277 16.0947C381.993 19.1631 383.327 23.3894 383.327 28.6578C383.327 33.9263 381.993 38.0947 379.277 41.1631C376.561 44.2315 372.939 45.7947 368.365 45.7947H348.163V56.3315H368.889C373.845 56.3315 378.181 55.1736 381.993 52.8578C385.804 50.5999 388.759 47.3578 390.855 43.1894C392.952 39.021 394 34.1578 394 28.6578C394 23.0999 392.952 18.2368 390.855 14.0684Z" fill="#306FF5"/>
<path d="M270.449 0.92627H260.062L239.716 56.3315H250.532L254.582 44.4631L257.965 34.7368L265.208 13.5473L272.403 34.7368L275.738 44.4631L279.788 56.3315H290.842L270.449 0.92627Z" fill="#306FF5"/>
<path d="M105.683 86.2056C106.493 85.6266 107.112 84.874 107.589 83.9477C108.065 82.9635 108.256 81.9214 108.256 80.7056C108.256 79.5477 108.065 78.4477 107.589 77.4635C107.112 76.5372 106.493 75.7845 105.683 75.2056C104.921 74.6845 104.015 74.3951 103.015 74.3951C102.014 74.3951 101.156 74.6845 100.346 75.2056C99.5364 75.7845 98.917 76.5372 98.4405 77.4635C97.9641 78.4477 97.7258 79.5477 97.7258 80.7056C97.7258 81.9214 97.9641 82.9635 98.4405 83.9477C98.917 84.874 99.5364 85.6266 100.346 86.2056C101.156 86.7266 102.014 87.0161 103.015 87.0161C104.015 87.0161 104.921 86.7266 105.683 86.2056ZM99.87 87.0161C98.9647 86.3793 98.2023 85.5109 97.6782 84.4109C97.1541 83.3109 96.8682 82.0951 96.8682 80.7056C96.8682 79.374 97.1541 78.1003 97.6782 77.0003C98.2023 75.9003 98.9647 75.0319 99.87 74.3951C100.823 73.7582 101.871 73.4688 103.015 73.4688C104.158 73.4688 105.207 73.7582 106.159 74.3951C107.065 75.0319 107.827 75.9003 108.351 77.0003C108.875 78.1003 109.161 79.3161 109.161 80.7056C109.161 82.0951 108.875 83.3109 108.351 84.4688C107.827 85.5688 107.065 86.4372 106.159 87.0161C105.207 87.653 104.158 88.0003 103.015 88.0003C101.871 88.0003 100.823 87.653 99.87 87.0161Z" fill="#306FF5"/>
<path d="M112.973 74.5106V80.5895H119.263V81.5737H112.973V87.8842H112.115V73.5264H120.025V74.5106H112.973Z" fill="#306FF5"/>
<path d="M136.702 73.5264V87.8842H135.844V81.0527H127.982V87.8842H127.125V73.5264H127.982V80.1264H135.844V73.5264H136.702Z" fill="#306FF5"/>
<path d="M147.803 82.9632L144.706 74.6843L141.609 82.9632H147.803ZM148.137 83.8316H141.276L139.751 87.8842H138.846L144.278 73.5264H145.135L150.567 87.8842H149.614L148.137 83.8316Z" fill="#306FF5"/>
<path d="M159.811 81.2263C160.478 80.5895 160.812 79.6053 160.812 78.3895C160.812 77.1158 160.478 76.1895 159.811 75.4948C159.144 74.8 158.191 74.5106 156.904 74.5106H153.569V82.2684H156.904C158.191 82.2684 159.144 81.9211 159.811 81.2263ZM160.43 74.8C161.24 75.6685 161.669 76.8843 161.669 78.3895C161.669 79.8948 161.24 81.0527 160.43 81.9211C159.573 82.7895 158.429 83.1948 156.904 83.1948H153.569V87.8842H152.711V73.5264H156.904C158.429 73.5264 159.573 73.9895 160.43 74.8Z" fill="#306FF5"/>
<path d="M171.675 81.2263C172.342 80.5895 172.676 79.6053 172.676 78.3895C172.676 77.1158 172.342 76.1895 171.675 75.4948C171.008 74.8 170.055 74.5106 168.816 74.5106H165.433V82.2684H168.816C170.055 82.2684 171.008 81.9211 171.675 81.2263ZM172.295 74.8C173.152 75.6685 173.581 76.8843 173.581 78.3895C173.581 79.8948 173.152 81.0527 172.295 81.9211C171.437 82.7895 170.293 83.1948 168.816 83.1948H165.433V87.8842H164.576V73.5264H168.816C170.293 73.5264 171.437 73.9895 172.295 74.8Z" fill="#306FF5"/>
<path d="M180.109 82.9632V87.8842H179.251V82.9632L174.486 73.5264H175.439L179.68 81.979L183.968 73.5264H184.826L180.109 82.9632Z" fill="#306FF5"/>
<path d="M193.164 87.0161C192.259 86.4372 191.544 85.5688 190.972 84.4688C190.448 83.3109 190.21 82.0951 190.21 80.7056C190.21 79.3161 190.448 78.1003 190.972 77.0003C191.544 75.9003 192.259 75.0319 193.164 74.3951C194.117 73.7582 195.165 73.4688 196.309 73.4688C197.167 73.4688 197.929 73.5845 198.644 73.9319C199.406 74.2793 199.978 74.8003 200.502 75.4372L199.978 76.1319C199.025 74.974 197.834 74.3951 196.357 74.3951C195.356 74.3951 194.451 74.6845 193.641 75.2056C192.831 75.7845 192.211 76.5372 191.735 77.4635C191.258 78.4477 191.068 79.5477 191.068 80.7056C191.068 81.9214 191.258 82.9635 191.735 83.9477C192.211 84.874 192.831 85.6266 193.641 86.2056C194.451 86.7266 195.356 87.0161 196.357 87.0161C197.786 87.0161 199.025 86.4372 199.978 85.2793L200.502 85.974C199.978 86.6109 199.406 87.1319 198.644 87.4793C197.929 87.8266 197.167 88.0003 196.309 88.0003C195.165 88.0003 194.117 87.653 193.164 87.0161Z" fill="#306FF5"/>
<path d="M204.504 86.379C203.694 85.3369 203.266 83.8316 203.266 81.8053V73.5264H204.123V81.7474C204.123 83.5421 204.457 84.8158 205.124 85.6842C205.791 86.6105 206.744 87.0158 207.983 87.0158C209.269 87.0158 210.222 86.6105 210.889 85.6842C211.509 84.8158 211.842 83.5421 211.842 81.7474V73.5264H212.7V81.8053C212.7 83.8316 212.319 85.3369 211.461 86.379C210.651 87.479 209.46 88 207.983 88C206.506 88 205.314 87.479 204.504 86.379Z" fill="#306FF5"/>
<path d="M217.369 87.4214C216.607 87.074 215.988 86.6109 215.559 86.0319L215.94 85.2793C216.321 85.8003 216.893 86.2056 217.608 86.553C218.322 86.9003 219.037 87.074 219.799 87.074C220.943 87.074 221.801 86.7845 222.372 86.2635C222.944 85.7424 223.23 85.1056 223.23 84.2372C223.23 83.6003 223.087 83.0793 222.754 82.7319C222.468 82.3266 222.087 82.0372 221.658 81.8635C221.181 81.6319 220.562 81.4003 219.799 81.2266C218.942 80.9372 218.275 80.7056 217.751 80.474C217.226 80.1845 216.75 79.8372 216.416 79.3161C216.035 78.7951 215.845 78.1003 215.845 77.2319C215.845 76.5372 215.988 75.9003 216.321 75.3214C216.607 74.7424 217.084 74.2793 217.703 73.9319C218.322 73.6424 219.085 73.4688 220.038 73.4688C220.705 73.4688 221.324 73.5845 221.944 73.8161C222.563 74.0477 223.135 74.3372 223.611 74.7424L223.278 75.553C222.801 75.2056 222.277 74.8582 221.705 74.6845C221.134 74.453 220.609 74.3951 220.038 74.3951C218.942 74.3951 218.132 74.6266 217.56 75.1477C216.988 75.7266 216.702 76.3635 216.702 77.2319C216.702 77.8688 216.845 78.3898 217.179 78.7951C217.465 79.1424 217.846 79.4319 218.322 79.6635C218.751 79.8372 219.371 80.0687 220.133 80.3003C220.991 80.5898 221.705 80.8214 222.229 81.053C222.706 81.2845 223.182 81.6898 223.516 82.153C223.897 82.674 224.088 83.3687 224.088 84.1793C224.088 84.874 223.945 85.5109 223.611 86.0898C223.325 86.6687 222.849 87.1319 222.182 87.4793C221.562 87.8266 220.752 88.0003 219.847 88.0003C218.989 88.0003 218.132 87.8266 217.369 87.4214Z" fill="#306FF5"/>
<path d="M229.091 74.5106H224.85V73.5264H234.189V74.5106H229.948V87.8842H229.091V74.5106Z" fill="#306FF5"/>
<path d="M243.814 86.2056C244.624 85.6266 245.243 84.874 245.72 83.9477C246.196 82.9635 246.387 81.9214 246.387 80.7056C246.387 79.5477 246.196 78.4477 245.72 77.4635C245.243 76.5372 244.624 75.7845 243.814 75.2056C243.052 74.6845 242.146 74.3951 241.146 74.3951C240.145 74.3951 239.288 74.6845 238.478 75.2056C237.668 75.7845 237.048 76.5372 236.572 77.4635C236.095 78.4477 235.857 79.5477 235.857 80.7056C235.857 81.9214 236.095 82.9635 236.572 83.9477C237.048 84.874 237.668 85.6266 238.478 86.2056C239.288 86.7266 240.145 87.0161 241.146 87.0161C242.146 87.0161 243.052 86.7266 243.814 86.2056ZM238.001 87.0161C237.096 86.3793 236.333 85.5109 235.809 84.4109C235.285 83.3109 234.999 82.0951 234.999 80.7056C234.999 79.374 235.285 78.1003 235.809 77.0003C236.333 75.9003 237.096 75.0319 238.001 74.3951C238.954 73.7582 240.002 73.4688 241.146 73.4688C242.289 73.4688 243.338 73.7582 244.291 74.3951C245.196 75.0319 245.958 75.9003 246.482 77.0003C247.006 78.1003 247.292 79.3161 247.292 80.7056C247.292 82.0951 247.006 83.3109 246.482 84.4688C245.958 85.5688 245.196 86.4372 244.291 87.0161C243.338 87.653 242.289 88.0003 241.146 88.0003C240.002 88.0003 238.954 87.653 238.001 87.0161Z" fill="#306FF5"/>
<path d="M261.444 87.8842L261.396 75.6106L256.488 85.9737H256.06L251.104 75.6685V87.8842H250.247V73.5264H251.009L256.25 84.6421L261.539 73.5264H262.254V87.8842H261.444Z" fill="#306FF5"/>
<path d="M274.499 86.9579V87.8842H266.399V73.5264H274.261V74.5106H267.257V80.1264H273.499V81.0527H267.257V86.9579H274.499Z" fill="#306FF5"/>
<path d="M281.885 82.2684C283.124 82.2684 284.077 81.9211 284.744 81.2842C285.411 80.5895 285.744 79.6053 285.744 78.3895C285.744 77.1158 285.411 76.1895 284.744 75.4948C284.077 74.8 283.124 74.5106 281.885 74.5106H278.502V82.2684H281.885ZM285.84 87.8842L283.028 83.079C282.599 83.1369 282.218 83.1948 281.885 83.1948H278.502V87.8842H277.644V73.5264H281.885C283.362 73.5264 284.505 73.9895 285.363 74.8C286.221 75.6685 286.65 76.8843 286.65 78.3895C286.65 79.4895 286.411 80.4737 285.935 81.2263C285.458 81.979 284.744 82.5579 283.886 82.8474L286.84 87.8842H285.84Z" fill="#306FF5"/>
<path d="M290.414 87.4214C289.651 87.074 289.032 86.6109 288.603 86.0319L288.984 85.2793C289.413 85.8003 289.937 86.2056 290.652 86.553C291.367 86.9003 292.081 87.074 292.844 87.074C293.987 87.074 294.845 86.7845 295.417 86.2635C295.988 85.7424 296.274 85.1056 296.274 84.2372C296.274 83.6003 296.131 83.0793 295.798 82.7319C295.512 82.3266 295.131 82.0372 294.702 81.8635C294.225 81.6319 293.654 81.4003 292.844 81.2266C291.986 80.9372 291.319 80.7056 290.795 80.474C290.271 80.1845 289.842 79.8372 289.461 79.3161C289.08 78.7951 288.889 78.1003 288.889 77.2319C288.889 76.5372 289.08 75.9003 289.365 75.3214C289.651 74.7424 290.128 74.2793 290.747 73.9319C291.367 73.6424 292.177 73.4688 293.082 73.4688C293.749 73.4688 294.368 73.5845 294.988 73.8161C295.655 74.0477 296.179 74.3372 296.655 74.7424L296.322 75.553C295.845 75.2056 295.321 74.8582 294.75 74.6845C294.178 74.453 293.654 74.3951 293.082 74.3951C291.986 74.3951 291.176 74.6266 290.604 75.1477C290.032 75.7266 289.747 76.3635 289.747 77.2319C289.747 77.8688 289.937 78.3898 290.223 78.7951C290.509 79.1424 290.89 79.4319 291.367 79.6635C291.795 79.8372 292.415 80.0687 293.177 80.3003C294.035 80.5898 294.75 80.8214 295.274 81.053C295.798 81.2845 296.227 81.6898 296.56 82.153C296.941 82.674 297.132 83.3687 297.132 84.1793C297.132 84.874 296.989 85.5109 296.655 86.0898C296.37 86.6687 295.893 87.1319 295.226 87.4793C294.607 87.8266 293.797 88.0003 292.891 88.0003C292.034 88.0003 291.176 87.8266 290.414 87.4214Z" fill="#306FF5"/>
</g>
</svg>
