<svg width="48" height="48" viewBox="0 0 48 48" fill="none" xmlns="http://www.w3.org/2000/svg">
<path d="M24 14.25C24.5933 14.25 25.1734 14.0741 25.6667 13.7444C26.1601 13.4148 26.5446 12.9462 26.7716 12.3981C26.9987 11.8499 27.0581 11.2467 26.9424 10.6647C26.8266 10.0828 26.5409 9.54824 26.1213 9.12868C25.7018 8.70912 25.1672 8.4234 24.5853 8.30765C24.0033 8.19189 23.4001 8.2513 22.852 8.47836C22.3038 8.70543 21.8352 9.08994 21.5056 9.58329C21.1759 10.0766 21 10.6567 21 11.25C21 12.0457 21.3161 12.8087 21.8787 13.3713C22.4413 13.9339 23.2044 14.25 24 14.25ZM24 9.75C24.2967 9.75 24.5867 9.83798 24.8334 10.0028C25.08 10.1676 25.2723 10.4019 25.3858 10.676C25.4994 10.9501 25.5291 11.2517 25.4712 11.5426C25.4133 11.8336 25.2704 12.1009 25.0607 12.3107C24.8509 12.5204 24.5836 12.6633 24.2926 12.7212C24.0017 12.7791 23.7001 12.7494 23.426 12.6358C23.1519 12.5223 22.9176 12.33 22.7528 12.0834C22.588 11.8367 22.5 11.5467 22.5 11.25C22.5 10.8522 22.658 10.4706 22.9393 10.1893C23.2206 9.90804 23.6022 9.75 24 9.75Z" fill="#2D66EE"/>
<path d="M23.25 21.75H24.75V23.25H23.25V21.75Z" fill="#2D66EE"/>
<path d="M23.25 24.75H24.75V30H23.25V24.75Z" fill="#2D66EE"/>
<path d="M43.2375 42.2775C43.1677 42.1915 43.0798 42.122 42.9799 42.074C42.8801 42.026 42.7708 42.0008 42.66 42H42V21.75C42 21.5511 41.921 21.3604 41.7804 21.2197C41.6397 21.0791 41.4489 21 41.25 21H36.51L35.9925 17.1525C35.9775 17.0314 35.9327 16.9159 35.862 16.8164C35.7913 16.7169 35.697 16.6366 35.5875 16.5825L31.47 14.52C31.1925 7.44755 24.765 1.91255 24.4875 1.68005C24.3517 1.56385 24.1788 1.5 24 1.5C23.8213 1.5 23.6484 1.56385 23.5125 1.68005C23.235 1.91255 16.8075 7.44755 16.53 14.52L12.4125 16.5825C12.3031 16.6366 12.2088 16.7169 12.1381 16.8164C12.0674 16.9159 12.0225 17.0314 12.0075 17.1525L11.49 21H6.75003C6.55112 21 6.36035 21.0791 6.2197 21.2197C6.07905 21.3604 6.00003 21.5511 6.00003 21.75V42H5.34003C5.22925 42.0008 5.12001 42.026 5.02015 42.074C4.9203 42.122 4.83232 42.1915 4.76253 42.2775C4.69152 42.3644 4.64112 42.4662 4.61514 42.5753C4.58916 42.6844 4.58827 42.798 4.61253 42.9075L5.26503 45.9075C5.30112 46.0756 5.39381 46.2261 5.52761 46.3339C5.6614 46.4418 5.82818 46.5004 6.00003 46.5H42C42.1719 46.5004 42.3387 46.4418 42.4725 46.3339C42.6062 46.2261 42.6989 46.0756 42.735 45.9075L43.3875 42.9075C43.4118 42.798 43.4109 42.6844 43.3849 42.5753C43.3589 42.4662 43.3085 42.3644 43.2375 42.2775ZM31.4625 16.1925L34.56 17.745L35.895 27.75H34.245L32.19 22.9575C32.1326 22.822 32.0366 22.7063 31.9139 22.625C31.7912 22.5436 31.6472 22.5002 31.5 22.5H30.2475C30.9645 20.4698 31.374 18.3438 31.4625 16.1925ZM24 3.27005C25.5075 4.70255 30 9.46505 30 15C30.057 17.9288 29.4385 20.8314 28.1925 23.4825C27.54 20.685 25.935 18.75 24 18.75C22.065 18.75 20.46 20.685 19.8075 23.4825C18.5616 20.8314 17.9431 17.9288 18 15C18 9.47255 22.4925 4.71005 24 3.27005ZM24 31.9875C23.0475 31.08 21 28.815 21 26.25C21 22.7175 22.5825 20.25 24 20.25C25.4175 20.25 27 22.7175 27 26.25C27 28.815 24.9525 31.08 24 31.9875ZM31.5 31.5V39H16.5V31.5H21.5475C22.1341 32.2613 22.7976 32.96 23.5275 33.585C23.6618 33.6919 23.8284 33.7501 24 33.7501C24.1717 33.7501 24.3382 33.6919 24.4725 33.585C25.2025 32.96 25.866 32.2613 26.4525 31.5H31.5ZM13.44 17.745L16.5375 16.1925C16.6261 18.3438 17.0356 20.4698 17.7525 22.5H16.5C16.3528 22.5002 16.2089 22.5436 16.0862 22.625C15.9635 22.7063 15.8674 22.822 15.81 22.9575L13.755 27.75H12.105L13.44 17.745ZM7.50003 22.5H11.295L10.5075 28.4025C10.4936 28.5084 10.5025 28.6161 10.5335 28.7182C10.5646 28.8204 10.6171 28.9148 10.6875 28.995C10.7572 29.0758 10.8436 29.1404 10.9407 29.1844C11.0379 29.2285 11.1434 29.2508 11.25 29.25H14.25C14.3972 29.2499 14.5412 29.2065 14.6639 29.1251C14.7866 29.0438 14.8826 28.9281 14.94 28.7925L16.995 24H18.3825C18.7018 24.6489 19.081 25.2666 19.515 25.845C19.5075 25.98 19.5 26.115 19.5 26.25C19.5306 27.5692 19.8944 28.8592 20.5575 30H15.75C15.5511 30 15.3604 30.0791 15.2197 30.2197C15.079 30.3604 15 30.5511 15 30.75V39.75C15 39.949 15.079 40.1397 15.2197 40.2804C15.3604 40.421 15.5511 40.5 15.75 40.5H32.25C32.4489 40.5 32.6397 40.421 32.7804 40.2804C32.921 40.1397 33 39.949 33 39.75V30.75C33 30.5511 32.921 30.3604 32.7804 30.2197C32.6397 30.0791 32.4489 30 32.25 30H27.4425C28.1056 28.8592 28.4694 27.5692 28.5 26.25C28.5 26.115 28.4925 25.98 28.485 25.845C28.9191 25.2666 29.2982 24.6489 29.6175 24H31.005L33.06 28.7925C33.1174 28.9281 33.2135 29.0438 33.3362 29.1251C33.4589 29.2065 33.6028 29.2499 33.75 29.25H36.75C36.8567 29.2508 36.9622 29.2285 37.0593 29.1844C37.1565 29.1404 37.2429 29.0758 37.3125 28.995C37.383 28.9148 37.4355 28.8204 37.4665 28.7182C37.4976 28.6161 37.5064 28.5084 37.4925 28.4025L36.705 22.5H40.5V42H26.25C26.0511 42 25.8604 42.0791 25.7197 42.2197C25.579 42.3604 25.5 42.5511 25.5 42.75H22.5C22.5 42.5511 22.421 42.3604 22.2804 42.2197C22.1397 42.0791 21.9489 42 21.75 42H7.50003V22.5ZM41.4 45H6.60003L6.27753 43.5H21C21 43.699 21.079 43.8897 21.2197 44.0304C21.3604 44.171 21.5511 44.25 21.75 44.25H26.25C26.4489 44.25 26.6397 44.171 26.7804 44.0304C26.921 43.8897 27 43.699 27 43.5H41.7225L41.4 45Z" fill="#2D66EE"/>
<path d="M34.5 33H39V34.5H34.5V33Z" fill="#2D66EE"/>
<path d="M35.25 40.5H38.25C38.4489 40.5 38.6397 40.421 38.7803 40.2803C38.921 40.1397 39 39.9489 39 39.75V36.75C39 36.5511 38.921 36.3603 38.7803 36.2197C38.6397 36.079 38.4489 36 38.25 36H35.25C35.0511 36 34.8603 36.079 34.7197 36.2197C34.579 36.3603 34.5 36.5511 34.5 36.75V39.75C34.5 39.9489 34.579 40.1397 34.7197 40.2803C34.8603 40.421 35.0511 40.5 35.25 40.5ZM36 37.5H37.5V39H36V37.5Z" fill="#2D66EE"/>
<path d="M9 33H13.5V34.5H9V33Z" fill="#2D66EE"/>
<path d="M12.75 36H9.75C9.55109 36 9.36032 36.079 9.21967 36.2197C9.07902 36.3603 9 36.5511 9 36.75V39.75C9 39.9489 9.07902 40.1397 9.21967 40.2803C9.36032 40.421 9.55109 40.5 9.75 40.5H12.75C12.9489 40.5 13.1397 40.421 13.2803 40.2803C13.421 40.1397 13.5 39.9489 13.5 39.75V36.75C13.5 36.5511 13.421 36.3603 13.2803 36.2197C13.1397 36.079 12.9489 36 12.75 36ZM12 39H10.5V37.5H12V39Z" fill="#2D66EE"/>
<path d="M33 6H34.5V4.5H36V3H34.5V1.5H33V3H31.5V4.5H33V6Z" fill="#2D66EE"/>
<path d="M39 10.5H40.5V9H42V7.5H40.5V6H39V7.5H37.5V9H39V10.5Z" fill="#2D66EE"/>
<path d="M13.5 6H15V4.5H16.5V3H15V1.5H13.5V3H12V4.5H13.5V6Z" fill="#2D66EE"/>
<path d="M7.5 10.5H9V9H10.5V7.5H9V6H7.5V7.5H6V9H7.5V10.5Z" fill="#2D66EE"/>
</svg>
